<?xml version="1.0" standalone="no"?><!DOCTYPE svg PUBLIC "-//W3C//DTD SVG 1.1//EN" "http://www.w3.org/Graphics/SVG/1.1/DTD/svg11.dtd"><svg t="1585405979566" class="icon" viewBox="0 0 1024 1024" version="1.1" xmlns="http://www.w3.org/2000/svg" p-id="4864" xmlns:xlink="http://www.w3.org/1999/xlink" width="200" height="200"><defs><style type="text/css"></style></defs><path d="M642.738409 227.422907c32.493268-12.085198 66.924644-18.470962 102.37902-18.470962 36.365487 0 71.828855 6.612542 104.999462 19.382073 0.687329-6.957206 1.141885-14.138193 1.141885-21.321179 0-113.667996-92.684488-205.899926-207.03282-205.899926-60.542876 0-114.924769 25.879727-152.777803 67.036535 32.034716 17.672741 61.680765 40.587364 87.898162 68.405198 25.768835 27.133502 46.973128 57.806548 63.392094 90.868261z m0 0" p-id="4865"></path><path d="M345.974218 814.566525h64.304202l-25.651949-72.507192c152.77081-28.846829 268.825475-170.333659 268.825475-340.545436 0-190.964511-146.15527-345.9072-326.515137-345.9072C146.570947 55.723582 0.413679 210.549385 0.413679 401.513897c0 168.619333 113.897772 309.076168 264.614587 339.632327l-21.43207 73.420301h55.751555l-9.236979 31.464273c-5.928211 19.951516 0 40.815141 15.731637 55.979333 6.725432 6.496656 7.984203 15.960414 3.190884 23.714841l-42.525472 67.264312c-6.040101 9.57465-2.276777 21.777733 8.55065 27.132503a25.178412 25.178412 0 0 0 10.944312 2.510549c7.755426 0 15.392968-3.651434 19.612847-10.14809l42.524472-67.152422c14.47986-22.801733 10.717534-51.076121-9.234981-70.226419-5.244878-5.132987-7.299871-12.202084-5.244878-18.926517l12.313975-41.612363z m-49.704461-619.181331c-0.457553 0.109893-50.281897 12.085198-93.82937 48.10802-58.948433 48.909237-79.578287 115.950767-61.341096 199.176491 3.19488 14.707637-6.0411 29.413276-20.864625 32.605159-2.048 0.456554-3.986107 0.685331-5.923215 0.685331-12.541752 0-23.831727-8.661541-26.681944-21.43207-28.729943-130.655407 27.590057-209.66425 79.805066-252.984945 52.445783-43.43758 109.906669-57.806548 116.292433-59.287102 14.707637-3.535547 29.414275 5.700433 32.832936 20.406072 3.416663 14.708636-5.583547 29.305381-20.290185 32.723044z m0 0" p-id="4866"></path><path d="M1021.9351 532.624859c0-162.234568-123.928976-293.801085-276.816672-293.801085-31.583157 0-61.905545 5.583547-90.068043 15.960413 18.469963 45.831243 28.162498 95.537701 28.162498 146.8416 0 100.103243-36.825038 194.16039-103.749682 265.070143-16.41497 17.330076-34.091707 32.722045-52.785452 46.177904 39.903032 54.381893 97.477807 93.599594 163.489343 107.733791l-10.487758 46.177905h28.841834v0.110891l-2.39666 8.210982c-4.667442 15.843528 0 32.488273 12.545749 44.690357 2.738326 2.505553 3.186888 6.496656 1.252776 9.463758l-29.866833 46.856242c-6.046096 9.57465-2.284769 21.777733 8.551649 27.132503a25.107481 25.107481 0 0 0 10.944312 2.510549c7.745436 0 15.382978-3.651434 19.602857-10.14809l29.754942-46.973128c11.517752-18.243184 8.55065-40.699255-7.292878-55.974337-2.051996-1.942103-3.075996-4.904211-2.279774-7.642537l5.357768-18.23719h27.820831l-11.400866-41.617358c140.684613-14.024304 250.820059-139.661612 250.820059-292.543313zM812.728403 730.999134a27.734915 27.734915 0 0 1-10.718533 2.163886c-10.604644 0-20.74574-6.26688-25.193397-16.643746-5.92921-13.911415 0.564449-29.98272 14.478861-35.910931 49.823344-21.204293 86.071945-62.020433 97.134142-109.221338 3.42066-14.707637 18.245182-24.054509 32.832937-20.519961 14.707637 3.418661 23.945616 18.126299 20.521959 32.833936-14.939411 64.302205-63.164316 119.363434-129.055969 147.298154z m0 0" p-id="4867"></path></svg>