<?xml version="1.0" standalone="no"?><!DOCTYPE svg PUBLIC "-//W3C//DTD SVG 1.1//EN" "http://www.w3.org/Graphics/SVG/1.1/DTD/svg11.dtd"><svg t="1586407033829" class="icon" viewBox="0 0 1048 1024" version="1.1" xmlns="http://www.w3.org/2000/svg" p-id="752" xmlns:xlink="http://www.w3.org/1999/xlink" width="204.6875" height="200"><defs><style type="text/css"></style></defs><path d="M226.052389 0h4.306651c6.904686 0.667063 12.826331 4.66944 17.308526 9.760183C294.33856 56.44288 341.021257 103.125577 387.715657 149.796571h273.144686c47.689143-47.642331 95.308069-95.331474 143.008914-142.962102 3.803429-3.873646 8.976091-6.120594 14.336-6.834469h4.271543c8.227109 0.877714 15.833966 6.155703 19.192686 13.750857 4.037486 8.613303 2.059703 19.543771-4.75136 26.190994-36.583131 36.641646-73.224777 73.213074-109.819612 109.843018 83.769051 0.035109 167.538103-0.011703 251.307155 0.023405 19.789531-0.117029 39.356709 8.706926 52.417097 23.569555 10.614491 11.761371 16.770194 27.220846 17.753234 42.996297v740.872777c-1.053257 20.585326-11.503909 40.456777-28.086857 52.744777-11.012389 8.344137-24.540891 13.130606-38.303452 14.00832H66.51904c-19.08736-1.041554-37.589577-10.122971-49.877577-24.810057C6.694034 987.580709 0.936229 972.647863 0 957.422446V216.561371c0.73728-11.082606 3.76832-22.048183 9.409097-31.656228 9.888914-17.250011 27.408091-29.912503 46.94016-33.727634 8.390949-1.80224 17.015954-1.334126 25.535634-1.380938 79.860297-0.011703 159.720594 0.011703 239.580892-0.011702-35.038354-35.06176-70.100114-70.111817-105.161874-105.161875-3.2768-3.347017-6.974903-6.483383-9.034606-10.778331-4.189623-8.215406-2.902309-18.876709 3.265097-25.746286 3.885349-4.599223 9.596343-7.325989 15.517989-8.098377m56.489691 328.74496c-65.957303 141.429029-131.996526 282.822949-197.895314 424.287086 46.027337 0.023406 92.054674 0 138.093714 0 9.8304-20.831086 19.520366-41.744091 29.280549-62.621989 51.995794-0.035109 103.991589-0.035109 155.987382 0 9.771886 20.8896 19.426743 41.849417 29.444389 62.621989 46.03904 0.011703 92.066377 0.011703 138.105417 0-65.933897-141.487543-131.914606-282.963383-198.117668-424.322195-31.632823 0.128731-63.265646 0.058514-94.898469 0.035109m296.5504 0.351086c-0.011703 141.253486-0.011703 282.518674 0 423.77216 60.936777 0.035109 121.873554 0.011703 182.822034 0.011703 7.7824-0.023406 15.576503 0.152137 23.3472-0.433006 25.594149-1.767131 50.731886-9.268663 73.271589-21.486446 31.901989-17.355337 58.514286-43.897417 76.876068-75.155748 21.310903-36.021394 31.738149-78.139977 30.778515-119.907475-0.936229-44.97408-15.131794-89.854537-41.69728-126.285531-20.948114-29.186926-49.772251-52.885211-83.008366-66.706286-22.188617-9.245257-46.226286-13.961509-70.263954-13.809371-64.038034-0.023406-128.076069-0.011703-192.125806 0M144.202606 811.277166c-9.046309 1.509669-16.536137 9.409097-17.519177 18.537325-0.351086 5.184366-0.514926 10.661303 1.825645 15.447772 3.452343 7.653669 11.679451 12.744411 20.0704 12.475246 250.464549 0.011703 500.929097 0 751.381943 0 7.852617 0.304274 15.658423-3.978971 19.485257-10.860252 3.089554-5.16096 3.218286-11.421989 2.644846-17.238308-0.947931-8.133486-7.056823-15.330743-14.874331-17.718126-4.224731-1.369234-8.730331-0.936229-13.095498-0.994743H190.756571c-15.517989 0.222354-31.071086-0.456411-46.553965 0.351086z" p-id="753"></path><path d="M158.117303 706.220617c51.36384-110.240914 102.833006-220.423314 154.243657-330.62912 11.773074-0.011703 23.546149-0.011703 35.319223 0 20.304457 43.288869 40.246126 86.75328 60.808046 129.913417 31.188114 66.916937 62.411337 133.798766 93.576045 200.727406-11.597531-0.011703-23.206766 0.011703-34.816-0.011703-9.678263-20.948114-19.777829-41.673874-29.420983-62.633691-71.878949-0.011703-143.746194-0.011703-215.61344 0-9.783589 20.866194-19.461851 41.7792-29.268845 62.633691-11.609234 0.011703-23.218469 0.011703-34.827703 0m171.493668-292.934217c-30.380617 65.032777-60.70272 130.112366-91.024822 195.180251 60.94848 0.011703 121.89696 0.011703 182.857142 0-30.345509-65.102994-60.679314-130.217691-91.083337-195.29728-0.187246 0.035109-0.561737 0.093623-0.748983 0.117029zM625.903909 375.907474c48.847726-0.011703 97.695451-0.035109 146.543177 0.011703 23.417417-0.023406 46.752914 6.354651 66.998857 18.116023 29.303954 16.910629 52.030903 44.15488 65.313646 75.108937 20.31616 46.94016 19.520366 102.552137-2.305463 148.836937-15.588206 33.399954-42.586697 61.966629-76.560092 76.876069-16.454217 7.220663-34.359589 11.094309-52.323474 11.22304-49.222217-0.023406-98.444434 0.011703-147.666651-0.023406-0.011703-110.053669-0.011703-220.095634 0-330.149303m32.077531 31.21152c-0.011703 88.976823 0 177.965349-0.011703 266.953875 38.537509 0.023406 77.063314 0 115.58912 0.011702 22.539703 0.035109 44.775131-8.11008 62.598583-21.79072 31.258331-23.791909 49.222217-62.411337 51.679817-101.194605 2.8672-40.292937-10.56768-82.317897-39.216274-111.270766-15.517989-15.716937-35.600091-27.150629-57.42592-31.094491-10.825143-2.176731-21.896046-1.544777-32.861623-1.626698-33.446766 0-66.905234-0.023406-100.352 0.011703z" p-id="754"></path><path d="M704.792869 453.930423c19.426743-0.035109 38.853486-0.011703 58.268525-0.011703 7.747291 0.058514 15.670126-0.526629 23.206766 1.673509 14.195566 3.52256 26.37824 12.802926 35.272411 24.213211 13.961509 17.800046 20.351269 40.784457 19.812938 63.230537-0.433006 23.066331-8.379246 46.425234-24.201509 63.488-11.070903 12.182674-26.86976 20.678949-43.569737 20.749166-22.9376-0.011703-45.863497 0.011703-68.801097-0.011703 0.011703-57.777006-0.011703-115.554011 0.011703-173.331017zM312.056686 561.64352c5.98016-12.826331 11.948617-25.664366 17.963885-38.478994 6.003566 12.814629 11.972023 25.652663 17.952183 38.478994-11.972023 0.023406-23.944046 0.023406-35.916068 0z" p-id="755"></path></svg>