<?xml version="1.0" standalone="no"?><!DOCTYPE svg PUBLIC "-//W3C//DTD SVG 1.1//EN" "http://www.w3.org/Graphics/SVG/1.1/DTD/svg11.dtd"><svg t="1585406120633" class="icon" viewBox="0 0 1024 1024" version="1.1" xmlns="http://www.w3.org/2000/svg" p-id="7528" xmlns:xlink="http://www.w3.org/1999/xlink" width="200" height="200"><defs><style type="text/css"></style></defs><path d="M566.38 83.775c-221.444 0-400.964 157.034-400.964 350.756 0 193.719 179.525 350.752 400.964 350.752 25.64 0 50.636-2.319 74.947-6.341L816.985 885.5V708.098C908.567 643.82 967.34 545.24 967.34 434.531c0-193.724-179.519-350.756-400.961-350.756zM441.083 559.798c-13.837 0-25.063-11.209-25.063-25.05 0-13.84 11.226-25.054 25.063-25.054h250.6c13.838 0 25.06 11.214 25.06 25.054 0 13.84-11.222 25.05-25.06 25.05h-250.6zM390.96 409.476c-13.832 0-25.054-11.225-25.059-25.054 0-13.84 11.228-25.06 25.059-25.06h350.844c13.844 0 25.055 11.22 25.055 25.06 0 13.83-11.217 25.054-25.055 25.054H390.96z m0 0" p-id="7529"></path><path d="M551.026 797.283c-1.203 0.48-2.392 0.991-3.606 1.46-38.388 14.788-79.425 22.897-121.963 24.107a29.299 29.299 0 0 0-20.29 8.973c-0.162 0.162-16.324 16.665-42.77 33.62-15.758 10.1-31.908 18.308-48.022 24.398-10.003 3.779-19.988 6.734-29.896 8.86 12.428-27.01 15.046-55.206 7.494-82.86a29.302 29.302 0 0 0-17.303-19.46c-53.957-21.791-99.507-55.747-131.712-98.19-32.441-42.761-49.593-92.224-49.593-143.036 0-52.746 18.34-101.969 49.968-143.458a126.666 126.666 0 0 1-19.875-22.25C85.947 436.777 64.045 493.79 64.045 555.16c0 118.467 81.608 220.733 199.643 268.403 9.674 35.419-4.791 65.549-18.806 84.746-7.173 9.823-0.124 23.496 11.81 23.496 0.267 0 0.532-0.005 0.803-0.016 96.88-4.94 168.791-79.639 168.791-79.639 50.065-1.423 97.366-11.824 139.834-29.348a125.225 125.225 0 0 1-15.094-25.519z m0 0" p-id="7530"></path></svg>